<svg xmlns="http://www.w3.org/2000/svg" height="24" viewBox="0 -960 960 960" width="24"><path d="m384-336 56-58-86-86 86-86-56-58-144 144 144 144Zm192 0 144-144-144-144-56 58 86 86-86 86 56 58ZM200-120q-33 0-56.5-23.5T120-200v-560q0-33 23.5-56.5T200-840h168q13-36 43.5-58t68.5-22q38 0 68.5 22t43.5 58h168q33 0 56.5 23.5T840-760v560q0 33-23.5 56.5T760-120H200Zm0-80h560v-560H200v560Zm301.5-598.5Q510-807 510-820t-8.5-21.5Q493-850 480-850t-21.5 8.5Q450-833 450-820t8.5 21.5Q467-790 480-790t21.5-8.5ZM200-200v-560 560Z"/></svg>